<?xml version="1.0" encoding="UTF-8"?>
<svg width="104px" height="104px" viewBox="0 0 104 104" version="1.1" xmlns="http://www.w3.org/2000/svg" xmlns:xlink="http://www.w3.org/1999/xlink">
    <!-- Generator: sketchtool 53 (72520) - https://sketchapp.com -->
    <title>E9709AB4-859B-4FCB-A30D-C1DB4F91702F</title>
    <desc>Created with sketchtool.</desc>
    <g id="Page-1" stroke="none" stroke-width="1" fill="none" fill-rule="evenodd">
        <g id="00-Homepage" transform="translate(-47.000000, -40.000000)">
            <g id="LOGO" transform="translate(47.000000, 40.000000)">
                <path d="M0,104 L104,104 L104,0 L0,0 L0,104 Z M32.7601926,71.2401743 L71.2401743,71.2401743 L71.2401743,32.7601926 L32.7601926,32.7601926 L32.7601926,71.2401743 Z" id="Fill-1" fill="#201747"></path>
                <path d="M85.7901417,21.1453512 C86.1312835,21.2276209 86.3020364,21.440336 86.3020364,21.7838672 L86.3020364,22.9693651 L83.5743589,22.9693651 C83.3198679,22.9693651 83.1170761,22.9215597 82.9692602,22.8263197 C82.8207161,22.7307091 82.686371,22.5961871 82.5647688,22.4194186 L79.4948574,17.7007741 C79.3859979,17.5377172 79.2589344,17.4161657 79.1100262,17.3346372 C78.9622103,17.2534794 78.7608748,17.2123446 78.5049275,17.2123446 L77.4738567,17.2123446 L77.4738567,20.9422713 L78.4091748,21.113481 C78.7495883,21.1957506 78.9210694,21.4084658 78.9210694,21.751997 L78.9210694,22.9693651 L73.3204472,22.9693651 L73.3204472,21.751997 C73.3204472,21.4084658 73.4912001,21.1957506 73.8323418,21.113481 L74.7676599,20.9422713 L74.7676599,10.3124434 L73.7442347,10.118628 C73.403093,10.0363584 73.2323401,9.82364325 73.2323401,9.480112 L73.2323401,8.26274397 L79.0710698,8.26274397 C80.0664609,8.26274397 80.9213176,8.36465453 81.6352759,8.56810508 C82.3222924,8.77118504 82.9015415,9.06283455 83.3730234,9.44231244 C83.8445053,9.83587252 84.1816422,10.2827967 84.3829777,10.7845672 C84.5985122,11.3000494 84.7062795,11.8696368 84.7062795,12.4929589 C84.7062795,12.9543358 84.6323716,13.4227538 84.4845556,13.8967306 C84.3629533,14.2902907 84.1539722,14.6908919 83.8579762,15.0970518 C83.6147717,15.4365066 83.278727,15.7485383 82.8476579,16.0327761 C82.4296956,16.3040435 81.9724128,16.520835 81.4743531,16.6835214 C81.8242327,16.8869719 82.1202287,17.1715803 82.3627051,17.5377172 L84.666595,20.9552417 L85.7901417,21.1453512 Z M77.4738567,15.2601087 L79.0306571,15.2601087 C79.488304,15.2601087 79.9321159,15.1915507 80.3624569,15.0562876 C80.7400065,14.9343655 81.0563908,14.7583381 81.3130663,14.5274644 C81.5413436,14.3103022 81.7241111,14.0394054 81.857728,13.7136622 C81.9793303,13.4027423 82.0390392,13.0629169 82.0390392,12.6971506 C82.0390392,11.9511653 81.7965628,11.3752779 81.3130663,10.9680063 C80.8408562,10.5748168 80.0937668,10.3772956 79.0710698,10.3772956 L77.4738567,10.3772956 L77.4738567,15.2601087 Z M94.5527873,20.9422713 L95.4881054,21.113481 C95.8292471,21.1957506 96,21.4084658 96,21.751997 L96,22.9693651 L90.3789894,22.9693651 L90.3789894,21.751997 C90.3789894,21.4084658 90.5493782,21.1957506 90.890884,21.113481 L91.825838,20.9422713 L91.825838,10.2898378 L90.890884,10.118628 C90.5493782,10.0363584 90.3789894,9.82364325 90.3789894,9.480112 L90.3789894,8.26274397 L96,8.26274397 L96,9.480112 C96,9.82364325 95.8292471,10.0363584 95.4881054,10.118628 L94.5527873,10.2898378 L94.5527873,20.9422713 Z M46.7164903,10.5003294 L43.7470646,10.5003294 C43.7201228,10.8531253 43.6862635,11.1369925 43.6462148,11.3545252 C43.5788603,11.6117105 43.4237628,11.7414148 43.1809223,11.7414148 L42.0100453,11.7414148 L42.0100453,8.26274397 L54.1480642,8.26274397 L54.1480642,11.7414148 L52.9975756,11.7414148 C52.7423564,11.7414148 52.5807055,11.6117105 52.5140791,11.3545252 C52.4729382,11.1240221 52.439807,10.8460842 52.4128652,10.5203409 L49.4438036,10.5203409 L49.4438036,20.9422713 L50.3791217,21.113481 C50.7198994,21.1957506 50.8910164,21.4084658 50.8910164,21.751997 L50.8910164,22.9693651 L45.2692776,22.9693651 L45.2692776,21.751997 C45.2692776,21.4084658 45.4403945,21.1957506 45.7811722,21.113481 L46.7164903,20.9422713 L46.7164903,10.5003294 L46.7164903,10.5003294 Z M12.5961292,8.57662851 C13.5849669,8.1952977 14.6426154,8 15.7727156,8 C16.9435926,8 17.9961441,8.1930742 18.9278214,8.57662851 C19.9159309,8.98871778 20.7343798,9.51828214 21.3842602,10.1642098 C22.0334125,10.8238491 22.5558654,11.6283867 22.9512548,12.5763403 C23.331717,13.498353 23.5232224,14.5078234 23.5232224,15.6077164 C23.5232224,16.2958906 23.4525912,16.9344067 23.3120568,17.5247468 C23.1700661,18.089146 22.9650898,18.6594746 22.6967638,19.2372149 C22.4713991,19.7041505 22.146641,20.1929507 21.7228534,20.7013917 C21.327828,21.1683274 20.897487,21.5600346 20.4307382,21.8761426 L24.3063557,26 L21.9769803,26 C21.6813484,26 21.3704252,25.9521947 21.045303,25.8558429 C20.7911761,25.7735733 20.5443307,25.6082928 20.3036747,25.3603722 L18.0594938,22.9482418 C17.7347356,23.044223 17.3673802,23.1135222 16.9581558,23.154657 C16.4499019,23.2095034 16.0541484,23.2372972 15.7727156,23.2372972 C14.6426154,23.2372972 13.5842387,23.044223 12.5961292,22.6599275 C11.6353256,22.2878613 10.8172408,21.7586675 10.1389622,21.0719756 C9.4614118,20.384172 8.93240548,19.5811167 8.55085103,18.6594746 C8.18385973,17.7659969 8,16.7494853 8,15.6077164 C8,14.4818826 8.18385973,13.4709298 8.55085103,12.5763403 C8.93240548,11.6420983 9.4614118,10.8383019 10.1389622,10.1642098 C10.8172408,9.47714733 11.6353256,8.94758297 12.5961292,8.57662851 L12.5961292,8.57662851 Z M13.7185837,20.618381 C14.293828,20.8596311 14.9801163,20.9756238 15.7730797,20.9756238 C16.566043,20.9756238 17.250875,20.857037 17.8275756,20.618381 C18.4337666,20.3660133 18.9518506,20.0080293 19.3847401,19.5447995 C19.8172656,19.067858 20.1416597,18.5056823 20.3586506,17.8608663 C20.5894765,17.1448983 20.7045253,16.3933542 20.7045253,15.6077164 C20.7045253,14.8354196 20.5894765,14.0923989 20.3586506,13.3760603 C20.1416597,12.7305032 19.8172656,12.1690686 19.3847401,11.6917566 C18.9518506,11.2288973 18.4337666,10.8709133 17.8275756,10.6185457 C17.250875,10.3798896 16.566043,10.2605616 15.7730797,10.2605616 C14.9801163,10.2605616 14.2949203,10.3798896 13.7185837,10.6185457 C13.0836305,10.8857366 12.5568087,11.2429795 12.1395745,11.6917566 C11.706685,12.1549864 11.3750093,12.7171622 11.1445475,13.3760603 C10.9119012,14.0368113 10.7972165,14.7802026 10.7972165,15.6077164 C10.7972165,16.4500535 10.9119012,17.2008565 11.1445475,17.8608663 C11.3750093,18.5201351 11.706685,19.081199 12.1395745,19.5447995 C12.5568087,19.9939471 13.0836305,20.3519312 13.7185837,20.618381 L13.7185837,20.618381 Z M34.9866036,8.26274397 L39.9362531,20.9348596 L41.046329,21.4025364 C41.3022763,21.4970353 41.430432,21.6730627 41.430432,21.9317302 L41.430432,22.9693651 L36.5011708,22.9693651 L36.5011708,21.9317302 C36.5011708,21.701227 36.63588,21.5244585 36.9052982,21.4025364 L37.3097896,21.2394795 L36.5011708,19.0230174 L30.6831936,19.0230174 L29.8756671,21.2394795 L30.2790663,21.4025364 C30.5481204,21.5244585 30.6831936,21.701227 30.6831936,21.9317302 L30.6831936,22.9693651 L25.7542965,22.9693651 L25.7542965,21.9317302 C25.7542965,21.701227 25.8893697,21.5244585 26.1580598,21.4025364 L27.2692279,20.9348596 L32.1992172,8.26274397 L34.9866036,8.26274397 Z M31.3905985,17.0904225 L35.8145185,17.0904225 L34.1379362,12.5137116 C33.9762852,12.0667874 33.7942459,11.4897884 33.5921822,10.7845672 L33.4101429,11.4149304 C33.3020115,11.7818084 33.1815015,12.1542452 33.0467924,12.5340937 L31.3905985,17.0904225 Z M63.962533,8.26274397 L68.9118185,20.9348596 L70.0222584,21.4025364 C70.2778417,21.4970353 70.4063614,21.6730627 70.4063614,21.9317302 L70.4063614,22.9693651 L65.4763721,22.9693651 L65.4763721,21.9317302 C65.4763721,21.701227 65.6114453,21.5244585 65.8801354,21.4025364 L66.2842627,21.2394795 L65.4763721,19.0230174 L59.6591231,19.0230174 L58.8519606,21.2394795 L59.2549957,21.4025364 C59.524414,21.5244585 59.6591231,21.701227 59.6591231,21.9317302 L59.6591231,22.9693651 L54.7294978,22.9693651 L54.7294978,21.9317302 C54.7294978,21.701227 54.8642069,21.5244585 55.1336251,21.4025364 L56.2444292,20.9348596 L61.1729622,8.26274397 L63.962533,8.26274397 Z M60.3650716,17.0904225 L64.7893557,17.0904225 L63.1135015,12.5137116 C62.9514865,12.0667874 62.7694472,11.4897884 62.5673835,10.7845672 L62.3853442,11.4149304 C62.2786691,11.7818084 62.1570668,12.1542452 62.0227218,12.5340937 L60.3650716,17.0904225 Z" id="Fill-2" fill="#CB9C69"></path>
                <path d="M81.8604475,77.4774822 C81.7769126,77.8259514 81.5599486,78 81.2091775,78 L80,78 L80,75.2141064 C80,74.9537773 80.0480042,74.7462578 80.1455246,74.5956388 C80.2430451,74.4439041 80.38101,74.3070453 80.5609314,74.183203 L85.3738282,71.0466089 C85.5405201,70.9354112 85.6641216,70.8063623 85.7472785,70.6542557 C85.8300575,70.5032648 85.8720139,70.296861 85.8720139,70.0354162 L85.8720139,68.9821989 L82.0672059,68.9821989 L81.8929543,69.9379787 C81.8086634,70.2864479 81.5916994,70.4604965 81.2416843,70.4604965 L80,70.4604965 L80,64.7399498 L81.2416843,64.7399498 C81.5916994,64.7399498 81.8086634,64.9143703 81.8929543,65.2624675 L82.0672059,66.2182474 L92.9089809,66.2182474 L93.1070457,65.172468 C93.1913366,64.8247427 93.4083006,64.6503222 93.7583157,64.6503222 L95,64.6503222 L95,70.6137188 C95,71.63049 94.8964318,72.5040802 94.6889174,73.2337455 C94.4817811,73.9358904 94.184684,74.5275813 93.7972483,75.0088183 C93.395827,75.4900553 92.9395978,75.8351773 92.4285606,76.0404654 C91.902782,76.2610014 91.3210614,76.3707115 90.6856668,76.3707115 C90.2146961,76.3707115 89.7369217,76.2952161 89.2542334,76.1445971 C88.8524342,76.0196391 88.4434533,75.8061692 88.0291805,75.5045593 C87.6829453,75.2557591 87.365059,74.9128684 87.0747656,74.4725403 C86.7984578,74.0456005 86.577336,73.5784957 86.4110221,73.0693663 C86.2042637,73.4263891 85.9128364,73.7294866 85.5405201,73.9767992 L82.0547324,76.3294308 L81.8604475,77.4774822 Z M87.8632446,68.9821989 L87.8632446,70.5728099 C87.8632446,71.0399147 87.9331721,71.4936312 88.071515,71.9339594 C88.1954944,72.3185027 88.3746598,72.6420546 88.6109011,72.9042432 C88.832401,73.1377956 89.1087088,73.3241169 89.4402026,73.4609757 C89.7577109,73.5851898 90.1039462,73.6458093 90.4773964,73.6458093 C91.2379044,73.6458093 91.8252948,73.3988686 92.2410795,72.9042432 C92.6425008,72.4215186 92.8435894,71.6587543 92.8435894,70.6137188 L92.8435894,68.9821989 L87.8632446,68.9821989 Z M95,32.7707888 C95,33.8247499 94.8140308,34.7823892 94.4409586,35.6440786 C94.0542788,36.5433298 93.5417297,37.2886149 92.9048231,37.8799339 C92.2690505,38.4712529 91.4798155,38.9472834 90.5393862,39.3065376 C89.6269277,39.6535191 88.6169489,39.8271958 87.5094497,39.8271958 C86.4038403,39.8271958 85.3953735,39.6535191 84.4814031,39.3065376 C83.5258542,38.9472834 82.7301935,38.4712529 82.0951769,37.8799339 C81.4582703,37.2886149 80.9464772,36.5433298 80.5590414,35.6440786 C80.1852132,34.7823892 80,33.8247499 80,32.7707888 L80,26 L81.2416843,26 C81.5916994,26 81.8086634,26.1744205 81.8929543,26.5228897 L82.0672059,27.4782976 L92.9327941,27.4790414 L93.1070457,26.5236335 C93.1913366,26.1751643 93.4083006,26.0007438 93.7583157,26.0007438 L95,26.0007438 L95,32.7707888 Z M85.2902933,36.6009741 C85.9400514,36.8036589 86.6797702,36.906303 87.5094497,36.906303 C88.3266556,36.906303 89.0591926,36.8036589 89.7097067,36.6009741 C90.4014212,36.3718845 90.9551708,36.0866381 91.3690656,35.7433756 C91.7973239,35.3748239 92.1443151,34.9170165 92.4070154,34.3710691 C92.6561083,33.8385101 92.7800877,33.2345465 92.7800877,32.5610379 L92.7800877,30.2645631 L82.2191563,30.2645631 L82.2191563,32.5610379 C82.2191563,33.2345465 82.3431358,33.8385101 82.5926066,34.3710691 C82.8556849,34.9170165 83.2011642,35.3748239 83.6301784,35.7433756 C84.0573027,36.0992827 84.6118083,36.384529 85.2902933,36.6009741 L85.2902933,36.6009741 Z M82.0672059,45.2167526 L81.8929543,46.1721605 C81.8086634,46.5202578 81.5916994,46.6950502 81.2416843,46.6950502 L80,46.6950502 L80,40.9529334 L81.2416843,40.9529334 C81.5916994,40.9529334 81.8086634,41.1273539 81.8929543,41.4754511 L82.0672059,42.430859 L92.9327941,42.4316028 L93.1070457,41.4761949 C93.1913366,41.1280977 93.4083006,40.9536771 93.7583157,40.9536771 L95,40.9536771 L95,46.6954221 L93.7583157,46.6954221 C93.4083006,46.6954221 93.1913366,46.5210016 93.1070457,46.1729043 L92.9327941,45.2174964 L82.0672059,45.2167526 Z M95,57.1766448 L82.0751436,62.2318646 L81.5977472,63.3672715 C81.5017387,63.6279725 81.3221953,63.758509 81.0579831,63.758509 L80,63.758509 L80,58.7233717 L81.0579831,58.7233717 C81.2942244,58.7233717 81.4737678,58.8613461 81.5977472,59.1365512 L81.7636831,59.5482431 L84.0251739,58.7233717 L84.0251739,52.7808014 L81.7636831,51.95593 L81.5977472,52.3683657 C81.4737678,52.6435708 81.2942244,52.7808014 81.0579831,52.7808014 L80,52.7808014 L80,47.7400857 L81.0579831,47.7400857 C81.2942244,47.7400857 81.4737678,47.8769444 81.5977472,48.1528933 L82.0751436,49.2897878 L95,54.3275284 L95,57.1766448 Z M85.9959933,53.5019131 L85.9959933,58.0223425 L90.6648775,56.3093769 C91.1203508,56.1438819 91.7088751,55.9579325 92.4285606,55.7522725 L91.7856063,55.5659512 C91.4114001,55.456613 91.0311461,55.3327707 90.6440883,55.1955401 L85.9959933,53.5019131 Z" id="Fill-4" fill="#CB9C69"></path>
                <path d="M36.3885485,94.2875425 L36.3885485,80.8685367 L35.4018563,80.6973106 C35.0773985,80.6232668 34.9183143,80.4363776 34.9183143,80.1266753 L34.9183143,79 L40.6383173,79 L40.6383173,80.1266753 C40.6383173,80.4363776 40.4796031,80.6232668 40.1525555,80.6976666 L39.168083,80.8685367 L39.168823,91.8839685 L53.0472574,91.8839685 L53.0472574,87.8485841 L52.0609351,87.6784259 C51.7357374,87.6043821 51.5766531,87.4167809 51.5766531,87.1067227 L51.5766531,85.9800473 L57.4660994,85.9800473 L57.4660994,87.1067227 C57.4660994,87.4171369 57.3077551,87.6043821 56.9810775,87.6787818 L55.9962351,87.8485841 L55.9962351,94.2875425 L36.3885485,94.2875425 Z M57.8179345,94.2875425 L57.8179345,91.8839685 L64.6881536,91.8839685 L64.6881536,90.5572326 C64.6881536,89.3013367 64.4387983,88.3597707 63.947487,87.7556734 C63.452476,87.1487283 62.6807325,86.8411619 61.6540843,86.8411619 C61.3484946,86.8411619 61.021077,86.8689283 60.6799708,86.9237492 L60.6799708,84.4888489 C61.1157876,84.4404357 61.5109085,84.4169411 61.8867912,84.4169411 C63.674454,84.4169411 65.0655162,84.9270598 66.0207615,85.933414 C66.9774866,86.9415482 67.4621386,88.407472 67.4621386,90.2902479 L67.4621386,91.8839685 L86.3439571,91.8839685 L86.3439571,82.884449 L85.3568949,82.7135788 C85.0324371,82.6395351 84.8744627,82.4526458 84.8744627,82.1425876 L84.8744627,81.0159123 L90.5937259,81.0159123 L90.5937259,82.1425876 C90.5937259,82.4530018 90.4346416,82.6398911 90.107964,82.7139348 L89.1238615,82.884449 L89.1238615,94.2875425 L57.8179345,94.2875425 Z M91.7561506,94.2875425 L91.7561506,81.0159123 L96,81.0159123 L96,82.1425876 C96,82.4530018 95.8409158,82.6398911 95.5142381,82.7139348 L94.5301357,82.884449 L94.5301357,94.2875425 L91.7561506,94.2875425 Z M51.8870524,98.8116868 C51.1852319,98.8116868 50.6140086,98.2631223 50.6140086,97.588897 C50.6140086,96.9157396 51.1852319,96.3682431 51.8870524,96.3682431 C52.587023,96.3682431 53.1563966,96.9157396 53.1563966,97.588897 C53.1563966,98.2631223 52.587023,98.8116868 51.8870524,98.8116868 L51.8870524,98.8116868 Z M55.2533487,98.8116868 C54.5526382,98.8116868 53.9825247,98.2631223 53.9825247,97.588897 C53.9825247,96.9157396 54.5526382,96.3682431 55.2533487,96.3682431 C55.9529494,96.3682431 56.5223229,96.9157396 56.5223229,97.588897 C56.5223229,98.2631223 55.9529494,98.8116868 55.2533487,98.8116868 L55.2533487,98.8116868 Z M30.2171902,99 C29.5272086,99 28.7813626,98.8878664 28,98.6660912 L28.4076996,96.6071054 C28.857575,96.7082035 29.2734138,96.7594646 29.644487,96.7594646 C30.5298093,96.7594646 30.9782048,96.299539 30.9782048,95.3925031 L30.9782048,86.6265062 L29.9918826,86.456348 C29.6670548,86.3823043 29.5079705,86.195771 29.5079705,85.8850008 L29.5079705,84.7583255 L35.2287135,84.7583255 L35.2287135,85.8850008 C35.2287135,86.195771 35.0696293,86.3823043 34.7425817,86.456704 L33.7581093,86.6265062 L33.7573693,95.3707883 C33.7573693,96.6039015 33.4650983,97.5283805 32.8883255,98.1164587 C32.3126625,98.7027571 31.4140216,99 30.2171902,99 L30.2171902,99 Z" id="Fill-6" fill="#CB9C69"></path>
                <path d="M22.9484967,32.2358532 C22.2580718,32.2358532 21.6966914,31.6690608 21.6966914,30.9723478 C21.6966914,30.2756347 22.2580718,29.7084743 22.9484967,29.7084743 C23.6389217,29.7084743 24.200302,30.2756347 24.200302,30.9723478 C24.200302,31.6690608 23.6389217,32.2358532 22.9484967,32.2358532 L22.9484967,32.2358532 Z M22.9484967,35.583977 C22.2580718,35.583977 21.6966914,35.0171845 21.6966914,34.3208396 C21.6966914,33.6241266 22.2580718,33.0577022 22.9484967,33.0577022 C23.6389217,33.0577022 24.200302,33.6241266 24.200302,34.3208396 C24.200302,35.0171845 23.6389217,35.583977 22.9484967,35.583977 L22.9484967,35.583977 Z M6.44464311,41.38403 C5.7545827,41.38403 5.1928378,40.8176056 5.1928378,40.1208926 C5.1928378,39.4241796 5.7545827,38.8573872 6.44464311,38.8573872 C7.13433898,38.8573872 7.69571934,39.4241796 7.69571934,40.1208926 C7.69571934,40.8176056 7.13433898,41.38403 6.44464311,41.38403 L6.44464311,41.38403 Z M6.44464311,44.7332579 C5.7545827,44.7332579 5.1928378,44.1664655 5.1928378,43.4693844 C5.1928378,42.7726714 5.7545827,42.205879 6.44464311,42.205879 C7.13433898,42.205879 7.69571934,42.7726714 7.69571934,43.4693844 C7.69571934,44.1664655 7.13433898,44.7332579 6.44464311,44.7332579 L6.44464311,44.7332579 Z M15.1722851,30.7588805 C13.2577593,30.7588805 12.2866442,31.7816832 12.2866442,33.7989489 L12.2866442,34.7290037 L14.586481,34.7290037 C15.433655,34.7290037 16.0774198,34.6679079 16.4999132,34.5475565 C16.926781,34.4249969 17.227156,34.2233071 17.3922893,33.9476399 C17.5559644,33.6756531 17.6387134,33.2851553 17.6387134,32.7868196 C17.6387134,32.1280154 17.4221809,31.6193744 16.9956777,31.2748824 C16.5713616,30.9325987 15.9578531,30.7588805 15.1722851,30.7588805 L15.1722851,30.7588805 Z M18.5522323,46.4189133 C18.2343598,46.4189133 18.0426156,46.2606531 17.9667928,45.9352995 L17.7921816,44.9562944 L9.8253194,44.9562944 L9.82604847,34.3046455 C9.82604847,32.2704496 10.2897341,30.6944723 11.2043466,29.6194069 C12.117501,28.5450776 13.4524198,28 15.1722851,28 C16.6293223,28 17.7994723,28.4357677 18.6510207,29.2947894 C19.50184,30.1534431 19.9334467,31.342235 19.9334467,32.8284089 C19.9334467,34.3977614 19.5302736,35.5788243 18.7348632,36.3392095 C17.9398174,37.1014348 16.7197264,37.4878842 15.1092209,37.4878842 L12.2866442,37.4878842 L12.2866442,42.0170709 L17.7925462,42.0170709 L17.9671573,41.0351214 C18.0426156,40.7119761 18.2343598,40.554084 18.5522323,40.554084 L19.7059783,40.554084 L19.7059783,46.4189133 L18.5522323,46.4189133 Z M22.9484967,77.1777072 C22.2580718,77.1777072 21.6966914,76.6105467 21.6966914,75.9138337 C21.6966914,75.2178568 22.2580718,74.6514324 22.9484967,74.6514324 C23.6389217,74.6514324 24.200302,75.2178568 24.200302,75.9138337 C24.200302,76.6105467 23.6389217,77.1777072 22.9484967,77.1777072 L22.9484967,77.1777072 Z M22.9484967,80.5258309 C22.2580718,80.5258309 21.6966914,79.9594066 21.6966914,79.2623255 C21.6966914,78.5652445 22.2580718,77.998452 22.9484967,77.998452 C23.6389217,77.998452 24.200302,78.5652445 24.200302,79.2623255 C24.200302,79.9594066 23.6389217,80.5258309 22.9484967,80.5258309 L22.9484967,80.5258309 Z M12.2866442,66.6449375 L13.8348146,66.6449375 C15.1048465,66.6449375 16.0588286,66.4255814 16.6697854,65.9931262 C17.2851167,65.5577266 17.5971566,64.8602774 17.5971566,63.9213895 C17.5971566,62.5390049 17.1994515,61.4355999 16.4149771,60.6424586 C15.6294091,59.8496853 14.5434662,59.448146 13.18704,59.448146 L12.2866442,59.448146 L12.2866442,66.6449375 Z M15.1722851,75.5465228 C14.2726184,75.5465228 13.5592279,75.7916421 13.052892,76.2756239 C12.5443688,76.7599738 12.2866442,77.4449093 12.2866442,78.311292 L12.2866442,79.5155419 L15.2973198,79.5155419 C16.1113213,79.5155419 16.7113422,79.360226 17.0806138,79.0525387 C17.450979,78.7426431 17.6387134,78.2450435 17.6387134,77.5733577 C17.6387134,76.9292754 17.4225455,76.424683 16.9960422,76.0739342 C16.5728197,75.7242895 15.9593112,75.5465228 15.1722851,75.5465228 L15.1722851,75.5465228 Z M24.8447959,90.6209928 C24.5272879,90.6209928 24.3359082,90.4631006 24.2597209,90.137747 L24.0854742,89.1587419 L9.82604847,89.1587419 L9.82604847,52.0702753 L8.71677545,52.0702753 C7.23750174,52.0702753 6.37137203,51.5402876 5.9051347,51.0960549 C5.30474934,50.5237417 5,49.6297555 5,48.4387554 C5,47.7446187 5.06306416,47.3342462 5.2919907,46.5558268 L7.4500243,46.6456303 C7.34649701,47.0928074 7.29436884,47.504284 7.29436884,47.8701227 C7.29436884,48.7523314 7.76570962,49.1998766 8.69563255,49.1998766 L17.7921816,49.1998766 L17.9671573,48.2182952 C18.0426156,47.8955179 18.2343598,47.7372577 18.5522323,47.7372577 L19.7059783,47.7372577 L19.7059783,53.5336303 L18.5522323,53.5336303 C18.2343598,53.5336303 18.0426156,53.3753701 17.9667928,53.0500165 L17.7925462,52.0702753 L12.2866442,52.0702753 L12.2866442,56.7731802 L24.0854742,56.7731802 L24.2604499,55.7915988 C24.3359082,55.4688215 24.5272879,55.3105613 24.8447959,55.3105613 L25.9989064,55.3105613 L25.9989064,61.1753906 L24.8447959,61.1753906 C24.5272879,61.1753906 24.3359082,61.0174985 24.2597209,60.6917769 L24.0854742,59.7127718 L17.6208513,59.7127718 L17.729482,59.793006 C18.4180843,60.2983346 18.950302,60.8997234 19.311554,61.5806104 C19.724205,62.3582938 19.9334467,63.25228 19.9334467,64.238646 C19.9334467,65.9195168 19.4599188,67.2143062 18.525986,68.0869457 C17.5916887,68.9614254 16.2031836,69.4049221 14.3998403,69.4049221 L12.2866442,69.4049221 L12.2866442,74.3279191 L12.3650187,74.225602 C12.6952854,73.7964592 13.1571483,73.4464465 13.7374844,73.1858692 C14.3218303,72.9212433 14.9236738,72.7872742 15.5266109,72.7872742 C16.3508193,72.7872742 17.1064956,72.9878599 17.7717678,73.3827743 C18.4359464,73.7758485 18.9681641,74.3481617 19.3534752,75.0842557 C19.7380572,75.8199817 19.9334467,76.6716425 19.9334467,77.6164192 C19.9334467,79.1636889 19.5248056,80.3395992 18.7191883,81.1110257 C17.9132065,81.8835564 16.6843668,82.2751584 15.0672997,82.2751584 L12.2866442,82.2751584 L12.2866442,86.3932366 L24.0854742,86.3932366 L24.2604499,85.4120232 C24.3359082,85.0888779 24.5272879,84.9309858 24.8447959,84.9309858 L25.9989064,84.9309858 L25.9989064,90.6209928 L24.8447959,90.6209928 Z M24.846254,96 C24.5280169,96 24.3366373,95.8417398 24.2608145,95.5167543 L24.0862033,94.5370131 L9.82604847,94.5370131 L9.82604847,91.7777645 L26,91.7777645 L26,96 L24.846254,96 Z" id="Fill-8" fill="#CB9C69"></path>
            </g>
        </g>
    </g>
</svg>